<svg width="30" height="30" viewBox="0 0 30 30" fill="none" xmlns="http://www.w3.org/2000/svg">
<path d="M17.507 23.75C16.4304 23.7542 15.3737 23.3763 14.4521 22.6573C13.5304 21.9384 12.7794 20.9061 12.2808 19.6732C11.7823 18.4403 11.5555 17.0542 11.6251 15.666C11.6947 14.2779 12.0581 12.9411 12.6757 11.8017C12.8485 11.486 13.1113 11.2719 13.4063 11.2065C13.7013 11.1412 14.0043 11.2299 14.2487 11.4533C14.493 11.6766 14.6587 12.0162 14.7093 12.3974C14.7598 12.7785 14.6911 13.17 14.5183 13.4858C14.0263 14.384 13.798 15.4793 13.8742 16.5753C13.9503 17.6714 14.3261 18.6966 14.934 19.4672C15.2713 19.9053 15.6722 20.2529 16.1137 20.4901C16.5553 20.7273 17.0288 20.8494 17.507 20.8494C17.9852 20.8494 18.4587 20.7273 18.9002 20.4901C19.3418 20.2529 19.7427 19.9053 20.0799 19.4672L26.8213 10.7564C27.4703 9.86601 27.8254 8.68396 27.8112 7.46094C27.7971 6.23792 27.4148 5.07013 26.7454 4.20523C26.0761 3.34033 25.1723 2.84634 24.2258 2.82804C23.2793 2.80974 22.3645 3.26856 21.6754 4.10719L18.8103 7.80926C18.7055 7.94463 18.5812 8.052 18.4443 8.12526C18.3074 8.19852 18.1607 8.23622 18.0126 8.23622C17.8644 8.23622 17.7177 8.19852 17.5809 8.12526C17.444 8.052 17.3196 7.94463 17.2149 7.80926C17.1101 7.6739 17.027 7.5132 16.9703 7.33634C16.9136 7.15948 16.8844 6.96992 16.8844 6.77849C16.8844 6.58706 16.9136 6.3975 16.9703 6.22064C17.027 6.04378 17.1101 5.88308 17.2149 5.74772L20.0799 2.04564C21.1981 0.699304 22.6771 -0.033652 24.2053 0.00118746C25.7334 0.0360269 27.1915 0.835942 28.2722 2.23241C29.3529 3.62888 29.972 5.51287 29.999 7.48746C30.0259 9.46206 29.4587 11.3731 28.4167 12.818L21.6754 21.5287C21.1276 22.2347 20.4775 22.7943 19.7623 23.1754C19.047 23.5565 18.2807 23.7518 17.507 23.75Z" fill="url(#paint0_linear_5_61)"/>
<path d="M5.85078 30C4.69417 30.0027 3.56297 29.5613 2.60061 28.7317C1.63824 27.9021 0.888055 26.7217 0.445152 25.3402C0.00224933 23.9586 -0.113422 22.4381 0.112802 20.9714C0.339027 19.5048 0.89696 18.158 1.71587 17.1018L8.40306 8.455C8.94533 7.75227 9.59 7.19557 10.2997 6.81709C11.0095 6.43862 11.7702 6.24589 12.538 6.25007C14.0863 6.25736 15.5707 7.04893 16.6729 8.455C17.6452 9.70598 18.2443 11.3609 18.3647 13.1276C18.485 14.8943 18.1187 16.6592 17.3305 18.1106C17.159 18.424 16.8983 18.6365 16.6057 18.7014C16.3131 18.7663 16.0125 18.6782 15.7701 18.4565C15.5277 18.2348 15.3634 17.8977 15.3132 17.5193C15.2631 17.141 15.3312 16.7523 15.5026 16.4389C15.9907 15.5472 16.2172 14.46 16.1416 13.372C16.066 12.284 15.6933 11.2664 15.0903 10.5014C14.4206 9.60309 13.5027 9.08483 12.538 9.06028C12.0597 9.06766 11.5873 9.199 11.1489 9.44654C10.7106 9.69407 10.315 10.0528 9.9857 10.5014L3.2985 19.1482C2.65469 20.0321 2.30246 21.2055 2.31651 22.4195C2.33056 23.6335 2.70979 24.7928 3.37377 25.6513C4.03775 26.5099 4.93425 27.0002 5.87316 27.0184C6.81206 27.0366 7.71951 26.5811 8.40306 25.7486L11.2451 22.0737C11.349 21.9394 11.4724 21.8328 11.6082 21.7601C11.744 21.6873 11.8895 21.6499 12.0364 21.6499C12.1834 21.6499 12.3289 21.6873 12.4647 21.7601C12.6005 21.8328 12.7238 21.9394 12.8278 22.0737C12.9317 22.2081 13.0141 22.3676 13.0703 22.5432C13.1266 22.7188 13.1555 22.9069 13.1555 23.0969C13.1555 23.287 13.1266 23.4751 13.0703 23.6507C13.0141 23.8263 12.9317 23.9858 12.8278 24.1202L9.9857 27.795C9.44232 28.4959 8.79745 29.0513 8.08795 29.4296C7.37846 29.808 6.61824 30.0018 5.85078 30Z" fill="url(#paint1_linear_5_61)"/>
<defs>
<linearGradient id="paint0_linear_5_61" x1="20.8063" y1="0" x2="20.8063" y2="23.75" gradientUnits="userSpaceOnUse">
<stop stop-color="#48D1D3"/>
<stop offset="1" stop-color="#2297BE"/>
</linearGradient>
<linearGradient id="paint1_linear_5_61" x1="9.19355" y1="6.25" x2="9.19355" y2="30" gradientUnits="userSpaceOnUse">
<stop stop-color="#48D1D3"/>
<stop offset="1" stop-color="#2297BE"/>
</linearGradient>
</defs>
</svg>
