<svg width="31" height="37" viewBox="0 0 31 37" fill="none" xmlns="http://www.w3.org/2000/svg">
<path d="M27.2777 1.53652C26.3928 1.53695 25.5373 1.84685 24.866 2.41013C24.6424 1.7938 24.252 1.24817 23.7365 0.831216C23.2209 0.414265 22.5993 0.14157 21.9378 0.0421115C21.2763 -0.0573472 20.5996 0.0201454 19.9796 0.266355C19.3595 0.512564 18.8193 0.918292 18.4164 1.44042C18.0133 0.918649 17.4731 0.51328 16.8532 0.267368C16.2332 0.0214563 15.5567 -0.0558158 14.8954 0.0437587C14.2341 0.143333 13.6128 0.416036 13.0974 0.832904C12.582 1.24977 12.1918 1.79524 11.9682 2.41137C11.4285 1.95966 10.7676 1.66865 10.0637 1.57289C9.35987 1.47712 8.64268 1.58062 7.99723 1.87109C7.35178 2.16156 6.80516 2.62683 6.42221 3.21168C6.03925 3.79654 5.83605 4.47644 5.8367 5.17073V10.627C4.72321 10.7129 3.66887 11.1516 2.83398 11.8765C1.99909 12.6014 1.42931 13.5729 1.21127 14.6431L0.0999423 20.0782C-0.0600078 20.8593 -0.0275952 21.6663 0.194505 22.4327C0.416605 23.1991 0.822028 23.903 1.37733 24.4862L9.01484 32.4735V36.2499C9.01484 36.4485 9.09559 36.639 9.23933 36.7794C9.38306 36.9199 9.57801 36.9987 9.78128 36.9987C9.98455 36.9987 10.1795 36.9199 10.3232 36.7794C10.467 36.639 10.5477 36.4485 10.5477 36.2499V32.1814C10.5483 31.9917 10.4742 31.8089 10.3408 31.671L2.4976 23.4653C2.10863 23.0553 1.82477 22.5609 1.66933 22.0229C1.51389 21.4849 1.4913 20.9185 1.60343 20.3703L2.71604 14.9352C3.06093 13.2528 4.59124 12.0273 6.33871 12.1047L17.5797 12.3705C17.5164 12.9958 17.2653 13.5889 16.858 14.0753C16.0201 15.1036 14.0337 16.3654 9.33802 16.5376C9.15942 16.5437 8.98862 16.6106 8.85517 16.7268C8.72171 16.8429 8.63399 17.0009 8.60717 17.1736C8.58035 17.3462 8.61611 17.5226 8.70828 17.6721C8.80045 17.8217 8.94323 17.9352 9.11193 17.9928C9.16685 18.0115 14.7912 19.9072 17.2604 24.1318C17.3644 24.2977 17.5303 24.4176 17.7232 24.466C17.9161 24.5145 18.1206 24.4877 18.2936 24.3913C18.4666 24.295 18.5945 24.1366 18.6501 23.9498C18.7056 23.763 18.6846 23.5624 18.5914 23.3904C16.987 20.6511 14.3058 18.8252 12.2862 17.7582C14.5753 17.3838 16.3126 16.6624 17.4801 15.5979C17.8383 15.3696 18.154 15.0835 18.4139 14.7517C18.7593 15.1977 19.2058 15.5593 19.7183 15.8084C20.2308 16.0574 20.7954 16.187 21.3678 16.187C21.9402 16.187 22.5049 16.0574 23.0174 15.8084C23.5299 15.5593 23.9764 15.1977 24.3218 14.7517C24.9093 15.5086 25.7778 16.0095 26.7399 16.1463C27.702 16.2831 28.6806 16.0449 29.4646 15.483V24.9505C29.4671 27.0975 28.8167 29.1969 27.5958 30.9821C27.5124 31.1049 27.4679 31.249 27.468 31.3964V36.2512C27.468 36.4498 27.5488 36.6403 27.6925 36.7807C27.8362 36.9211 28.0312 37 28.2344 37C28.4377 37 28.6327 36.9211 28.7764 36.7807C28.9201 36.6403 29.0009 36.4498 29.0009 36.2512V31.6198C30.3084 29.6301 31.0024 27.3149 31 24.9505V5.16948C30.9986 4.20572 30.6059 3.28186 29.908 2.60073C29.2101 1.91959 28.2641 1.53685 27.2777 1.53652ZM9.55518 3.02664C10.1355 3.02697 10.692 3.25228 11.1025 3.65309C11.513 4.05391 11.7439 4.59748 11.7446 5.16449V10.7319L7.36701 10.6395V5.16948C7.36668 4.88841 7.42301 4.61002 7.53279 4.35022C7.64258 4.09041 7.80366 3.85428 8.00685 3.6553C8.21004 3.45632 8.45136 3.29839 8.71702 3.19052C8.98268 3.08266 9.26749 3.02697 9.55518 3.02664ZM13.2749 10.7643V3.63817C13.2679 3.35299 13.3193 3.06932 13.4261 2.80385C13.5329 2.53837 13.693 2.29645 13.897 2.09232C14.1009 1.88819 14.3446 1.72598 14.6137 1.61522C14.8827 1.50447 15.1718 1.44741 15.4637 1.44741C15.7557 1.44741 16.0447 1.50447 16.3138 1.61522C16.5829 1.72598 16.8266 1.88819 17.0305 2.09232C17.2344 2.29645 17.3945 2.53837 17.5014 2.80385C17.6082 3.06932 17.6596 3.35299 17.6525 3.63817V10.8766L13.2749 10.7643ZM23.5592 5.16074V12.544C23.5592 13.111 23.3287 13.6547 22.9183 14.0557C22.5079 14.4566 21.9514 14.6818 21.371 14.6818C20.7907 14.6818 20.2341 14.4566 19.8238 14.0557C19.4134 13.6547 19.1829 13.111 19.1829 12.544V3.63817C19.1829 3.07118 19.4134 2.52741 19.8238 2.12649C20.2341 1.72556 20.7907 1.50033 21.371 1.50033C21.9514 1.50033 22.5079 1.72556 22.9183 2.12649C23.3287 2.52741 23.5592 3.07118 23.5592 3.63817V5.16074ZM27.2777 14.6818C26.6975 14.6812 26.1414 14.4557 25.7312 14.0549C25.3209 13.6542 25.0902 13.1108 25.0895 12.544V5.16948C25.1033 4.61127 25.34 4.08045 25.749 3.69042C26.1579 3.30039 26.7068 3.08205 27.2783 3.08205C27.8498 3.08205 28.3987 3.30039 28.8077 3.69042C29.2167 4.08045 29.4533 4.61127 29.4671 5.16948V12.5527C29.4665 13.1197 29.2355 13.6633 28.825 14.0641C28.4145 14.4649 27.858 14.6902 27.2777 14.6906V14.6818Z" fill="url(#paint0_linear_7_102)"/>
<defs>
<linearGradient id="paint0_linear_7_102" x1="15.5" y1="0" x2="15.5" y2="37" gradientUnits="userSpaceOnUse">
<stop stop-color="#48D1D3"/>
<stop offset="1" stop-color="#2297BE"/>
</linearGradient>
</defs>
</svg>
