<svg width="21" height="21" viewBox="0 0 21 21" fill="none" xmlns="http://www.w3.org/2000/svg">
<path fill-rule="evenodd" clip-rule="evenodd" d="M10.4976 1.93329C5.45959 1.93329 1.37427 6.01775 1.37427 11.0566C1.37427 15.0875 3.98841 18.5073 7.61337 19.7137C8.06928 19.7981 8.23673 19.5157 8.23673 19.2748C8.23673 19.0574 8.22835 18.3385 8.22439 17.5762C5.68626 18.1281 5.15068 16.4997 5.15068 16.4997C4.73563 15.4453 4.13774 15.1648 4.13774 15.1648C3.3099 14.5986 4.20014 14.6102 4.20014 14.6102C5.11618 14.6746 5.59865 15.5506 5.59865 15.5506C6.41234 16.9452 7.7329 16.5419 8.2536 16.3088C8.3355 15.7193 8.57183 15.3167 8.83283 15.0888C6.80639 14.8582 4.67609 14.0759 4.67609 10.5801C4.67609 9.58408 5.03253 8.77018 5.61619 8.13125C5.52148 7.90137 5.20916 6.97351 5.70459 5.71676C5.70459 5.71676 6.47074 5.4717 8.21403 6.65207C8.94183 6.4499 9.72234 6.34852 10.4977 6.345C11.2729 6.34852 12.054 6.4499 12.7831 6.65207C14.5245 5.4717 15.2896 5.71676 15.2896 5.71676C15.7861 6.97351 15.4738 7.90137 15.3791 8.13125C15.9641 8.77018 16.318 9.58404 16.318 10.5801C16.318 14.0843 14.1837 14.8557 12.1521 15.0816C12.4793 15.3648 12.7708 15.92 12.7708 16.7711C12.7708 17.9918 12.7604 18.9743 12.7604 19.2748C12.7604 19.5176 12.9246 19.8022 13.387 19.7126C17.0101 18.5048 19.6209 15.0862 19.6209 11.0566C19.6209 6.01775 15.5362 1.93329 10.4976 1.93329Z" fill="#48D1D3"/>
<path d="M4.8298 15.0323C4.80972 15.0778 4.73833 15.0913 4.6734 15.0602C4.60717 15.0304 4.57013 14.9686 4.59151 14.9232C4.61114 14.8765 4.68252 14.8635 4.74864 14.8947C4.8149 14.9245 4.85269 14.9869 4.8298 15.0323Z" fill="black"/>
<path d="M5.19941 15.4446C5.15592 15.4848 5.07074 15.4661 5.01303 15.4024C4.95328 15.3387 4.94224 15.2536 4.9864 15.2128C5.03125 15.1725 5.11375 15.1913 5.17346 15.255C5.23324 15.3193 5.24486 15.4037 5.19941 15.4446Z" fill="black"/>
<path d="M5.55919 15.9699C5.50325 16.0089 5.41178 15.9724 5.35526 15.8913C5.29933 15.8101 5.29934 15.7128 5.35657 15.6738C5.41309 15.6348 5.50327 15.6699 5.5605 15.7504C5.61628 15.8329 5.61627 15.9303 5.55919 15.9699Z" fill="black"/>
<path d="M6.05181 16.4776C6.00176 16.5328 5.89522 16.5179 5.81736 16.4426C5.73753 16.3691 5.7154 16.2647 5.7654 16.2095C5.81619 16.1544 5.9233 16.1698 6.00175 16.2445C6.08098 16.318 6.10503 16.423 6.05181 16.4776Z" fill="black"/>
<path d="M6.73169 16.7724C6.70958 16.8438 6.60706 16.8762 6.50375 16.8459C6.40048 16.8146 6.33308 16.7309 6.35386 16.6588C6.37523 16.5868 6.47833 16.553 6.58234 16.5855C6.6855 16.6166 6.75307 16.6996 6.73169 16.7724Z" fill="black"/>
<path d="M7.47835 16.827C7.48083 16.9022 7.39319 16.9647 7.28477 16.966C7.17572 16.9685 7.08733 16.9076 7.08618 16.8335C7.08618 16.7575 7.17184 16.6958 7.28093 16.6939C7.38935 16.6918 7.47835 16.7523 7.47835 16.827Z" fill="black"/>
<path d="M8.17324 16.7088C8.1862 16.7821 8.11076 16.8575 8.00304 16.8776C7.89714 16.8971 7.7992 16.8516 7.78564 16.7789C7.77253 16.7037 7.84919 16.6283 7.95502 16.6088C8.06289 16.59 8.1595 16.6341 8.17324 16.7088Z" fill="black"/>
</svg>
