<svg width="42" height="42" viewBox="0 0 42 42" fill="none" xmlns="http://www.w3.org/2000/svg">
<path d="M19.2693 7.68402C20.9982 7.45847 22.7545 7.5708 24.4407 8.01478C24.4529 8.01915 24.4617 8.02878 24.4748 8.0314C24.4879 8.03403 24.5072 8.0314 24.5238 8.0384C26.1939 8.49067 27.76 9.26336 29.1352 10.3135C29.2037 10.3658 29.2819 10.404 29.3652 10.4261C29.4485 10.4482 29.5354 10.4536 29.6209 10.4421C29.7063 10.4306 29.7886 10.4024 29.8632 10.3591C29.9377 10.3158 30.003 10.2582 30.0553 10.1897C30.1075 10.1211 30.1458 10.0429 30.1679 9.95961C30.19 9.87627 30.1954 9.7894 30.1839 9.70397C30.1724 9.61853 30.1442 9.53619 30.1009 9.46166C30.0576 9.38712 30 9.32185 29.9314 9.26957C28.5804 8.24411 27.0615 7.461 25.4426 6.95512L26.0402 4.72468C26.4794 4.71605 26.9075 4.58515 27.2764 4.34667C27.6453 4.1082 27.9404 3.7716 28.1286 3.37467C28.3168 2.97775 28.3906 2.53622 28.3417 2.09968C28.2928 1.66313 28.1232 1.24886 27.8519 0.903383C27.5806 0.557908 27.2183 0.294912 26.8058 0.143933C26.3933 -0.00704703 25.9469 -0.0400314 25.5166 0.0486839C25.0864 0.137399 24.6894 0.344301 24.3703 0.646152C24.0512 0.948003 23.8225 1.33285 23.71 1.75747C23.5787 2.25114 23.6115 2.77409 23.8032 3.24755C23.995 3.72101 24.3354 4.11935 24.7732 4.38255L24.1738 6.61999C22.5081 6.25021 20.7911 6.17146 19.0986 6.38723C19.0111 6.39561 18.9261 6.42151 18.8487 6.46339C18.7714 6.50527 18.7032 6.56228 18.6483 6.63102C18.5934 6.69976 18.5529 6.77884 18.5292 6.86355C18.5055 6.94826 18.499 7.03687 18.5102 7.12412C18.5214 7.21137 18.5501 7.29548 18.5944 7.37145C18.6388 7.44741 18.698 7.51368 18.7684 7.56632C18.8389 7.61896 18.9193 7.65689 19.0047 7.67786C19.0901 7.69883 19.1789 7.70241 19.2658 7.68839L19.2693 7.68402ZM24.9788 2.09786C25.0512 1.82944 25.2271 1.60068 25.4679 1.46174C25.7087 1.3228 25.9947 1.28503 26.2633 1.35671C26.5171 1.44142 26.7289 1.61978 26.8556 1.85538C26.9823 2.09099 27.0143 2.36606 26.9451 2.62446C26.8759 2.88285 26.7106 3.10508 26.4831 3.24577C26.2556 3.38647 25.9829 3.43502 25.7208 3.38152C25.4524 3.30932 25.2236 3.13365 25.0845 2.89303C24.9454 2.65241 24.9074 2.36646 24.9788 2.09786Z" fill="url(#paint0_linear_8_126)"/>
<path d="M22.7319 34.3312C21.0013 34.5578 19.2431 34.4457 17.5552 34.0013C17.5421 34.0013 17.5333 33.9882 17.5202 33.9847C17.5123 33.9842 17.5045 33.9842 17.4966 33.9847C15.8386 33.5381 14.2822 32.7764 12.9123 31.7411C12.8434 31.6894 12.7649 31.6518 12.6814 31.6304C12.598 31.609 12.5111 31.6042 12.4258 31.6164C12.3404 31.6286 12.2584 31.6575 12.1842 31.7014C12.1101 31.7453 12.0453 31.8034 11.9936 31.8723C11.9418 31.9413 11.9042 32.0197 11.8828 32.1032C11.8614 32.1867 11.8567 32.2736 11.8689 32.3589C11.8935 32.5312 11.9856 32.6867 12.1248 32.7911C13.4601 33.7989 14.9579 34.571 16.5533 35.0741L15.9565 37.3019C15.4458 37.3057 14.9506 37.4773 14.5469 37.7901C14.1433 38.103 13.8536 38.5399 13.7226 39.0335C13.5622 39.6378 13.6478 40.281 13.9608 40.8223C14.2737 41.3635 14.7884 41.7587 15.3922 41.9211C15.9395 42.0669 16.521 42.0104 17.0301 41.7622C17.5392 41.5139 17.9417 41.0905 18.1639 40.5695C18.3861 40.0486 18.4131 39.4649 18.2399 38.9257C18.0667 38.3864 17.705 37.9277 17.221 37.6335L17.8195 35.4013C18.8538 35.6312 19.91 35.7485 20.9696 35.7513C21.6133 35.7515 22.2563 35.7099 22.8946 35.6271C22.982 35.6184 23.0668 35.5923 23.1439 35.5503C23.221 35.5083 23.2889 35.4512 23.3435 35.3825C23.3982 35.3137 23.4385 35.2347 23.4621 35.1501C23.4856 35.0655 23.492 34.9771 23.4807 34.89C23.4695 34.8029 23.4409 34.7189 23.3966 34.6431C23.3523 34.5673 23.2933 34.5011 23.2229 34.4485C23.1526 34.3959 23.0725 34.3579 22.9872 34.3369C22.902 34.3158 22.8133 34.3121 22.7266 34.3259L22.7319 34.3312ZM17.0162 39.9182C16.9438 40.1866 16.7679 40.4154 16.5271 40.5543C16.2863 40.6933 16.0003 40.731 15.7317 40.6593C15.4636 40.5869 15.2352 40.4113 15.0963 40.1709C14.9574 39.9305 14.9194 39.6449 14.9905 39.3766C15.0738 39.121 15.2519 38.9071 15.4882 38.7789C15.7245 38.6508 16.0009 38.6181 16.2605 38.6876C16.5202 38.7571 16.7433 38.9236 16.8838 39.1527C17.0244 39.3818 17.0718 39.6552 17.0162 39.9182Z" fill="url(#paint1_linear_8_126)"/>
<path d="M7.35255 9.72021C7.74904 9.71905 8.13871 9.61696 8.48483 9.42357L10.1281 11.0669C8.97497 12.3146 8.04841 13.754 7.39018 15.3204C7.35678 15.3997 7.33934 15.4849 7.33886 15.5709C7.33838 15.657 7.35486 15.7424 7.38736 15.8221C7.41986 15.9018 7.46775 15.9743 7.52829 16.0355C7.58883 16.0967 7.66083 16.1454 7.74019 16.1788C7.81991 16.2125 7.90563 16.2298 7.99219 16.2295C8.12178 16.2296 8.24849 16.1913 8.35639 16.1195C8.46428 16.0477 8.54855 15.9457 8.59859 15.8261C9.97319 12.5532 12.5828 9.95433 15.8613 8.59318C15.941 8.56031 16.0134 8.51207 16.0745 8.45121C16.1355 8.39035 16.184 8.31807 16.2171 8.23848C16.2502 8.15889 16.2673 8.07356 16.2674 7.98736C16.2676 7.90116 16.2507 7.81578 16.2179 7.73609C16.185 7.6564 16.1368 7.58396 16.0759 7.52291C16.0151 7.46187 15.9428 7.4134 15.8632 7.38029C15.7836 7.34718 15.6983 7.33007 15.6121 7.32994C15.5259 7.3298 15.4405 7.34665 15.3608 7.37951C13.7738 8.04071 12.3157 8.97609 11.053 10.1428L9.41324 8.49517C9.66384 8.05006 9.7613 7.53496 9.69063 7.02906C9.61996 6.52317 9.38508 6.05449 9.0221 5.69509C8.74808 5.41844 8.40994 5.2138 8.03774 5.09938C7.66554 4.98496 7.27083 4.96432 6.88873 5.03927C6.50662 5.11423 6.14897 5.28247 5.84758 5.52903C5.5462 5.77558 5.31042 6.09281 5.16124 6.45248C5.01205 6.81215 4.95408 7.20313 4.99247 7.59062C5.03087 7.97811 5.16444 8.3501 5.38131 8.6735C5.59818 8.9969 5.89163 9.26169 6.23554 9.4443C6.57945 9.62692 6.96317 9.7217 7.35255 9.72021ZM6.6114 6.62174C6.7064 6.51459 6.82231 6.42801 6.95201 6.36731C7.08171 6.30662 7.22245 6.27309 7.36558 6.26879C7.50871 6.26449 7.65121 6.28952 7.78432 6.34233C7.91742 6.39513 8.03832 6.47461 8.13958 6.57586C8.24083 6.67712 8.32031 6.79802 8.37311 6.93112C8.42592 7.06423 8.45095 7.20672 8.44665 7.34986C8.44235 7.49299 8.40882 7.63373 8.34813 7.76343C8.28743 7.89312 8.20085 8.00904 8.0937 8.10404C7.8943 8.29517 7.62876 8.40189 7.35255 8.40189C7.07634 8.40189 6.8108 8.29517 6.6114 8.10404C6.4153 7.90723 6.30519 7.64072 6.30519 7.36289C6.30519 7.08506 6.4153 6.81855 6.6114 6.62174Z" fill="url(#paint2_linear_8_126)"/>
<path d="M33.5167 32.5986L31.8673 30.9492C33.0128 29.7106 33.9352 28.2831 34.5939 26.7298C34.6272 26.6504 34.6446 26.5651 34.6451 26.4789C34.6455 26.3927 34.629 26.3073 34.5964 26.2275C34.5638 26.1477 34.5158 26.0751 34.4552 26.0139C34.3945 25.9526 34.3224 25.9039 34.243 25.8706C34.1635 25.8372 34.0783 25.8198 33.9921 25.8193C33.9059 25.8189 33.8205 25.8355 33.7407 25.868C33.6609 25.9006 33.5883 25.9486 33.527 26.0092C33.4658 26.0699 33.4171 26.142 33.3837 26.2214C32.0142 29.4583 29.4354 32.0327 26.1962 33.3967C26.1167 33.43 26.0445 33.4786 25.9838 33.5399C25.9231 33.6011 25.8751 33.6736 25.8424 33.7534C25.8097 33.8332 25.7931 33.9187 25.7935 34.0049C25.7938 34.0911 25.8112 34.1764 25.8445 34.2559C25.8778 34.3354 25.9265 34.4076 25.9877 34.4683C26.0489 34.529 26.1215 34.5771 26.2013 34.6098C26.2811 34.6424 26.3665 34.6591 26.4527 34.6587C26.5389 34.6584 26.6242 34.641 26.7038 34.6077C28.263 33.9487 29.696 33.0241 30.9389 31.875L32.5822 33.5209C32.3102 34.0178 32.2264 34.596 32.3461 35.1497C32.4658 35.7033 32.781 36.1953 33.2339 36.5355C33.6869 36.8756 34.2472 37.0412 34.8123 37.0018C35.3773 36.9624 35.9093 36.7207 36.3107 36.321C36.7528 35.878 37.0012 35.2777 37.0012 34.6519C37.0012 34.026 36.7528 33.4257 36.3107 32.9828C35.9436 32.6346 35.4767 32.4102 34.9755 32.3413C34.4743 32.2724 33.9641 32.3624 33.5167 32.5986ZM35.384 35.3987C35.2371 35.5444 35.0504 35.6435 34.8473 35.6834C34.6443 35.7234 34.434 35.7025 34.2428 35.6233C34.0516 35.5441 33.8881 35.4102 33.7728 35.2384C33.6574 35.0666 33.5954 34.8645 33.5946 34.6576C33.5954 34.4506 33.6574 34.2486 33.7728 34.0768C33.8881 33.9049 34.0516 33.771 34.2428 33.6919C34.434 33.6127 34.6443 33.5917 34.8473 33.6317C35.0504 33.6716 35.2371 33.7707 35.384 33.9164C35.5788 34.113 35.688 34.3786 35.688 34.6554C35.688 34.9321 35.5788 35.1977 35.384 35.3943V35.3987Z" fill="url(#paint3_linear_8_126)"/>
<path d="M6.94553 25.4532C7.44927 27.0617 8.2266 28.5714 9.24335 29.9158C9.29552 29.9844 9.36069 30.0421 9.43514 30.0855C9.50959 30.1289 9.59186 30.1572 9.67726 30.1688C9.76266 30.1805 9.84951 30.1751 9.93285 30.1532C10.0162 30.1313 10.0944 30.0931 10.163 30.0409C10.2316 29.9888 10.2893 29.9236 10.3327 29.8491C10.3761 29.7747 10.4044 29.6924 10.416 29.607C10.4277 29.5216 10.4223 29.4348 10.4004 29.3514C10.3784 29.2681 10.3403 29.1899 10.2881 29.1213C9.24319 27.748 8.47416 26.1853 8.02357 24.5195C8.02357 24.5081 8.02357 24.4959 8.02357 24.4845C8.02357 24.4731 8.01394 24.467 8.01044 24.4565C7.56978 22.7906 7.45274 21.0555 7.66568 19.3455C7.68703 19.1727 7.63887 18.9985 7.5318 18.8613C7.42472 18.724 7.2675 18.6349 7.09473 18.6135C6.92195 18.5922 6.74777 18.6403 6.6105 18.7474C6.47323 18.8545 6.38412 19.0117 6.36277 19.1845C6.15933 20.8526 6.24189 22.5432 6.6069 24.1835L4.37208 24.7847C4.10829 24.3474 3.70993 24.0074 3.23668 23.8156C2.76344 23.6238 2.24078 23.5905 1.74701 23.7206C1.29651 23.8422 0.892104 24.0945 0.584786 24.4456C0.277468 24.7967 0.0810027 25.2309 0.0201674 25.6936C-0.0406679 26.1562 0.0368511 26.6265 0.242948 27.0451C0.449046 27.4637 0.774491 27.812 1.17824 28.0459C1.53527 28.2539 1.94107 28.3635 2.35428 28.3635C2.56112 28.3631 2.76703 28.3358 2.96679 28.2821C3.46133 28.1526 3.89957 27.8642 4.21406 27.4611C4.52855 27.0581 4.70183 26.5629 4.70722 26.0517L6.94553 25.4532ZM3.27043 26.5268C3.14896 26.7372 2.95829 26.899 2.7309 26.9846C2.50352 27.0702 2.2535 27.0742 2.02345 26.9961C1.79339 26.918 1.59755 26.7625 1.46928 26.5562C1.34102 26.3499 1.28827 26.1054 1.32003 25.8646C1.3518 25.6237 1.4661 25.4013 1.64347 25.2353C1.82084 25.0692 2.05029 24.9699 2.29273 24.9541C2.53517 24.9382 2.77559 25.007 2.97301 25.1486C3.17044 25.2902 3.31266 25.4959 3.37543 25.7306C3.41091 25.8639 3.41952 26.003 3.40074 26.1397C3.38196 26.2764 3.33618 26.408 3.26605 26.5268H3.27043Z" fill="url(#paint4_linear_8_126)"/>
<path d="M41.9178 15.4026C41.7554 14.7989 41.3602 14.2842 40.819 13.9713C40.2777 13.6583 39.6345 13.5727 39.0302 13.7331C38.536 13.8629 38.098 14.1515 37.7837 14.5544C37.4694 14.9574 37.2962 15.4525 37.2907 15.9635L35.0533 16.5629C34.5548 14.9688 33.7874 13.4716 32.7843 12.1362C32.7326 12.0672 32.6678 12.0091 32.5937 11.9652C32.5195 11.9213 32.4374 11.8924 32.3521 11.8803C32.2668 11.8681 32.1799 11.8728 32.0964 11.8942C32.0129 11.9156 31.9345 11.9532 31.8655 12.0049C31.7966 12.0566 31.7385 12.1214 31.6946 12.1956C31.6507 12.2697 31.6218 12.3518 31.6096 12.4371C31.5974 12.5224 31.6022 12.6093 31.6236 12.6928C31.6449 12.7763 31.6826 12.8547 31.7343 12.9237C32.7665 14.2893 33.5267 15.8406 33.9735 17.4931C33.9735 17.5044 33.9735 17.5158 33.9735 17.5272C33.9764 17.5353 33.9799 17.5432 33.984 17.5508C34.4186 19.1929 34.5388 20.9024 34.3384 22.5892C34.3179 22.762 34.3668 22.9358 34.4745 23.0725C34.5821 23.2092 34.7396 23.2975 34.9124 23.3181C34.9386 23.3181 34.9649 23.3225 34.9903 23.3225C35.1508 23.3223 35.3058 23.2633 35.4258 23.1565C35.5458 23.0498 35.6224 22.9027 35.6413 22.7432C35.8318 21.1022 35.746 19.4409 35.3875 17.8282L37.6232 17.2323C37.916 17.72 38.3753 18.0854 38.9164 18.2609C39.4575 18.4364 40.0438 18.4103 40.5672 18.1873C41.0905 17.9644 41.5155 17.5596 41.7638 17.0478C42.012 16.536 42.0667 15.9517 41.9178 15.4026ZM39.9053 17.0267C39.6367 17.0984 39.3506 17.0606 39.1098 16.9217C38.869 16.7827 38.6931 16.554 38.6207 16.2855C38.5493 16.017 38.5872 15.7312 38.7261 15.4906C38.8651 15.25 39.0937 15.0743 39.3619 15.0019C39.6249 14.9463 39.8992 14.9937 40.1282 15.1342C40.3573 15.2748 40.5238 15.4979 40.5933 15.7576C40.6629 16.0172 40.6302 16.2936 40.502 16.5299C40.3739 16.7662 40.16 16.9443 39.9044 17.0276L39.9053 17.0267Z" fill="url(#paint5_linear_8_126)"/>
<path d="M29.7433 11.3337C29.6823 11.3947 29.634 11.4671 29.601 11.5467C29.568 11.6264 29.551 11.7117 29.551 11.7979C29.551 11.8842 29.568 11.9695 29.601 12.0492C29.634 12.1288 29.6823 12.2012 29.7433 12.2621C29.8043 12.3231 29.8766 12.3715 29.9563 12.4045C30.0359 12.4374 30.1213 12.4544 30.2075 12.4544C30.2937 12.4544 30.3791 12.4374 30.4587 12.4045C30.5384 12.3715 30.6107 12.3231 30.6717 12.2621L32.9853 9.94858C33.401 10.132 33.8681 10.163 34.3044 10.036C34.7407 9.90903 35.1183 9.63228 35.3707 9.25442C35.6231 8.87656 35.7342 8.4218 35.6844 7.97013C35.6346 7.51846 35.4271 7.09881 35.0985 6.78501C34.7698 6.4712 34.3411 6.28333 33.8876 6.25446C33.4341 6.22558 32.9849 6.35753 32.6191 6.62712C32.2533 6.8967 31.9943 7.28664 31.8876 7.72835C31.7809 8.17005 31.8334 8.63523 32.0359 9.04205L29.7433 11.3337ZM33.3169 7.75314C33.4026 7.66749 33.5117 7.60915 33.6305 7.58553C33.7493 7.5619 33.8725 7.57403 33.9844 7.62039C34.0963 7.66675 34.192 7.74526 34.2593 7.84599C34.3266 7.94671 34.3625 8.06514 34.3625 8.18628C34.3625 8.30742 34.3266 8.42584 34.2593 8.52657C34.192 8.6273 34.0963 8.7058 33.9844 8.75217C33.8725 8.79853 33.7493 8.81066 33.6305 8.78703C33.5117 8.7634 33.4026 8.70507 33.3169 8.61942C33.26 8.56254 33.2149 8.49501 33.1841 8.42069C33.1533 8.34638 33.1375 8.26672 33.1375 8.18628C33.1375 8.10584 33.1533 8.02618 33.1841 7.95186C33.2149 7.87755 33.26 7.81002 33.3169 7.75314Z" fill="url(#paint6_linear_8_126)"/>
<path d="M12.2649 30.6692C12.3258 30.6082 12.3742 30.5359 12.4072 30.4562C12.4402 30.3766 12.4571 30.2912 12.4571 30.205C12.4571 30.1188 12.4402 30.0334 12.4072 29.9538C12.3742 29.8741 12.3258 29.8018 12.2649 29.7408C12.2039 29.6798 12.1315 29.6315 12.0519 29.5985C11.9722 29.5655 11.8869 29.5485 11.8007 29.5485C11.7144 29.5485 11.6291 29.5655 11.5494 29.5985C11.4698 29.6315 11.3974 29.6798 11.3365 29.7408L9.02289 32.0544C8.66912 31.9004 8.27725 31.8563 7.8981 31.9277C7.51895 31.9992 7.17003 32.1829 6.89658 32.4551C6.64462 32.7049 6.4666 33.0195 6.38218 33.3642C6.29777 33.7088 6.31024 34.07 6.41821 34.408C6.52619 34.746 6.72548 35.0476 6.99406 35.2794C7.26265 35.5112 7.59009 35.6644 7.94022 35.7218C8.29034 35.7793 8.64954 35.7388 8.97814 35.605C9.30674 35.4712 9.59195 35.2491 9.80229 34.9634C10.0126 34.6776 10.1399 34.3393 10.1701 33.9858C10.2002 33.6322 10.1321 33.2773 9.97317 32.96L12.2649 30.6692ZM8.69125 34.2498C8.60559 34.3355 8.49645 34.3938 8.37763 34.4174C8.25882 34.4411 8.13567 34.4289 8.02375 34.3826C7.91183 34.3362 7.81617 34.2577 7.74887 34.157C7.68157 34.0562 7.64564 33.9378 7.64564 33.8167C7.64564 33.6955 7.68157 33.5771 7.74887 33.4764C7.81617 33.3757 7.91183 33.2971 8.02375 33.2508C8.13567 33.2044 8.25882 33.1923 8.37763 33.2159C8.49645 33.2395 8.60559 33.2979 8.69125 33.3835C8.74814 33.4404 8.79326 33.5079 8.82405 33.5823C8.85483 33.6566 8.87068 33.7362 8.87068 33.8167C8.87068 33.8971 8.85483 33.9768 8.82405 34.0511C8.79326 34.1254 8.74814 34.1929 8.69125 34.2498Z" fill="url(#paint7_linear_8_126)"/>
<path d="M16.1632 5.47108L17.0014 8.59929C17.0388 8.73879 17.1211 8.86207 17.2357 8.95003C17.3502 9.03799 17.4905 9.08572 17.635 9.08581C17.6922 9.08581 17.7493 9.07846 17.8047 9.06393C17.9728 9.0186 18.116 8.90853 18.2031 8.75782C18.2902 8.6071 18.314 8.42802 18.2693 8.25978L17.4223 5.09919C17.7324 4.86979 17.9665 4.55252 18.0941 4.18852C18.2217 3.82452 18.237 3.43058 18.1381 3.05776C18.0473 2.71485 17.8636 2.40368 17.6072 2.1586C17.3507 1.91352 17.0316 1.74405 16.6849 1.66891C16.3383 1.59376 15.9776 1.61586 15.6427 1.73276C15.3078 1.84966 15.0117 2.05682 14.7871 2.33137C14.5625 2.60592 14.4181 2.93719 14.3699 3.28861C14.3217 3.64003 14.3715 3.99794 14.5139 4.32284C14.6562 4.64773 14.8856 4.92698 15.1766 5.12976C15.4677 5.33253 15.8091 5.45008 16.1632 5.47108ZM16.1194 2.96413C16.1711 2.95033 16.2243 2.94327 16.2778 2.94313C16.4333 2.94297 16.5831 3.00197 16.6967 3.10817C16.8103 3.21437 16.8793 3.35981 16.8896 3.51498C16.8999 3.67016 16.8508 3.82346 16.7523 3.94377C16.6537 4.06408 16.5131 4.14241 16.3589 4.16285C16.2048 4.18329 16.0486 4.14432 15.9221 4.05385C15.7956 3.96338 15.7083 3.82817 15.6778 3.67567C15.6473 3.52316 15.676 3.36477 15.758 3.23263C15.84 3.1005 15.9692 3.0045 16.1194 2.96413Z" fill="url(#paint8_linear_8_126)"/>
<path d="M26.6922 36.7804C26.4331 36.633 26.1429 36.5485 25.8452 36.5336L25.0069 33.4045C24.9872 33.3184 24.9503 33.2372 24.8985 33.1657C24.8467 33.0942 24.781 33.0339 24.7054 32.9883C24.6297 32.9428 24.5457 32.9129 24.4583 32.9006C24.3708 32.8882 24.2818 32.8936 24.1965 32.9165C24.1112 32.9393 24.0314 32.9791 23.9618 33.0334C23.8922 33.0878 23.8343 33.1556 23.7915 33.2329C23.7487 33.3101 23.722 33.3952 23.7128 33.483C23.7036 33.5708 23.7122 33.6596 23.7381 33.744L24.5843 36.902C24.2734 37.1313 24.0388 37.449 23.9113 37.8137C23.7838 38.1783 23.7692 38.573 23.8694 38.9461C23.9787 39.3544 24.2195 39.7155 24.5544 39.9734C24.8894 40.2313 25.2999 40.3719 25.7227 40.3732C25.8919 40.373 26.0605 40.3509 26.2241 40.3076C26.592 40.2092 26.9225 40.0039 27.1738 39.7176C27.425 39.4313 27.5856 39.0769 27.6354 38.6993C27.6851 38.3217 27.6217 37.9378 27.4532 37.5962C27.2847 37.2546 27.0186 36.9707 26.6887 36.7804H26.6922ZM26.26 38.7544C26.2095 38.8415 26.1383 38.9149 26.0527 38.9679C25.9672 39.021 25.8698 39.0522 25.7694 39.0586C25.6689 39.0651 25.5684 39.0467 25.4767 39.0051C25.385 38.9635 25.305 38.8999 25.2438 38.82C25.1825 38.74 25.1419 38.6463 25.1256 38.5469C25.1092 38.4476 25.1176 38.3457 25.15 38.2504C25.1824 38.155 25.2378 38.0692 25.3112 38.0003C25.3847 37.9315 25.4741 37.8819 25.5713 37.8558C25.6492 37.8352 25.7304 37.8302 25.8103 37.8411C25.8901 37.8519 25.967 37.8785 26.0366 37.9191C26.1062 37.9597 26.1671 38.0137 26.2158 38.0779C26.2644 38.1421 26.3 38.2153 26.3203 38.2933C26.3616 38.449 26.3399 38.6146 26.26 38.7544Z" fill="url(#paint9_linear_8_126)"/>
<path d="M3.03433 18.2307C3.42412 18.334 3.83653 18.3123 4.21333 18.1687C4.59013 18.025 4.91231 17.7667 5.13439 17.4301L8.25823 18.2675C8.31535 18.2824 8.37419 18.2898 8.43323 18.2893C8.59269 18.2895 8.74676 18.2317 8.86667 18.1266C8.98658 18.0215 9.06412 17.8763 9.08481 17.7182C9.1055 17.5601 9.06791 17.3999 8.97908 17.2675C8.89025 17.1351 8.75625 17.0395 8.60211 16.9987L5.4424 16.1525C5.39886 15.7689 5.241 15.4073 4.98931 15.1146C4.73761 14.8218 4.40372 14.6115 4.03098 14.511C3.53771 14.3788 3.01215 14.448 2.5699 14.7034C2.12765 14.9587 1.80495 15.3793 1.67279 15.8725C1.54062 16.3658 1.60982 16.8914 1.86516 17.3336C2.1205 17.7758 2.54106 18.0986 3.03433 18.2307ZM2.9407 16.2129C2.97176 16.0959 3.03677 15.9908 3.12753 15.9107C3.2183 15.8307 3.33075 15.7793 3.45068 15.7631C3.57062 15.7469 3.69267 15.7666 3.80143 15.8197C3.91018 15.8728 4.00077 15.9569 4.06176 16.0614C4.12275 16.166 4.15141 16.2862 4.14411 16.407C4.13681 16.5278 4.09389 16.6438 4.02076 16.7402C3.94763 16.8366 3.84757 16.9092 3.73321 16.9489C3.61886 16.9885 3.49532 16.9933 3.37821 16.9628C3.30015 16.9425 3.22687 16.9069 3.16259 16.8581C3.09832 16.8094 3.0443 16.7484 3.00365 16.6788C2.96299 16.6091 2.93651 16.5321 2.9257 16.4521C2.9149 16.3722 2.92 16.2909 2.9407 16.2129Z" fill="url(#paint10_linear_8_126)"/>
<path d="M38.9733 23.7731C38.5835 23.6655 38.1696 23.6852 37.7918 23.8294C37.414 23.9735 37.0922 24.2347 36.8732 24.5746L33.7433 23.7364C33.66 23.7141 33.5732 23.7084 33.4878 23.7197C33.4023 23.7309 33.3199 23.7589 33.2453 23.802C33.1707 23.8451 33.1052 23.9025 33.0528 23.9709C33.0003 24.0393 32.9619 24.1173 32.9396 24.2006C32.9173 24.2838 32.9116 24.3707 32.9229 24.4561C32.9341 24.5415 32.9621 24.6239 33.0052 24.6986C33.0483 24.7732 33.1057 24.8386 33.1741 24.8911C33.2425 24.9435 33.3205 24.982 33.4038 25.0043L36.5644 25.8513C36.6079 26.2344 36.7654 26.5956 37.0166 26.8882C37.2678 27.1807 37.601 27.391 37.9732 27.492C38.4642 27.6175 38.9849 27.5444 39.4223 27.2885C39.8597 27.0325 40.1786 26.6144 40.3096 26.1249C40.4407 25.6353 40.3735 25.1138 40.1225 24.6735C39.8715 24.2333 39.457 23.9097 38.9689 23.7731H38.9733ZM39.0669 25.7909C39.0356 25.908 38.9703 26.0131 38.8793 26.093C38.7882 26.173 38.6755 26.2241 38.5554 26.2399C38.4352 26.2558 38.3131 26.2356 38.2044 26.1821C38.0958 26.1285 38.0054 26.0439 37.9448 25.939C37.8842 25.8341 37.8561 25.7136 37.864 25.5927C37.8719 25.4718 37.9155 25.3559 37.9893 25.2598C38.063 25.1637 38.1636 25.0916 38.2783 25.0527C38.3931 25.0137 38.5168 25.0097 38.6338 25.041C38.7907 25.0831 38.9244 25.1857 39.0056 25.3263C39.0868 25.4669 39.1089 25.6341 39.0669 25.7909Z" fill="url(#paint11_linear_8_126)"/>
<path d="M9.63721 21.7133C9.63721 22.2533 9.79734 22.7812 10.0974 23.2302C10.3974 23.6791 10.8238 24.0291 11.3227 24.2357C11.8216 24.4423 12.3706 24.4963 12.9002 24.3909C13.4298 24.2855 13.9163 24.0254 14.2981 23.6435C14.6798 23.2616 14.9398 22.775 15.045 22.2454C15.1503 21.7158 15.0961 21.1668 14.8893 20.668C14.6825 20.1691 14.3325 19.7428 13.8834 19.4429C13.4343 19.143 12.9064 18.9831 12.3664 18.9832C11.6427 18.9842 10.9489 19.2721 10.4373 19.7839C9.92564 20.2958 9.6379 20.9896 9.63721 21.7133ZM13.784 21.7133C13.784 21.9937 13.7008 22.2678 13.5451 22.5009C13.3893 22.734 13.1679 22.9157 12.9089 23.023C12.6499 23.1303 12.3648 23.1583 12.0899 23.1036C11.8149 23.0489 11.5623 22.9139 11.3641 22.7157C11.1658 22.5174 11.0308 22.2648 10.9761 21.9899C10.9214 21.7149 10.9495 21.4299 11.0568 21.1709C11.1641 20.9118 11.3458 20.6904 11.5789 20.5347C11.812 20.3789 12.086 20.2958 12.3664 20.2958C12.7422 20.2962 13.1025 20.4457 13.3683 20.7115C13.634 20.9772 13.7835 21.3375 13.784 21.7133Z" fill="url(#paint12_linear_8_126)"/>
<path d="M20.9976 33.1639C21.8356 33.1639 22.6547 32.9154 23.3515 32.4499C24.0482 31.9843 24.5913 31.3226 24.912 30.5484C25.2327 29.7742 25.3166 28.9223 25.1531 28.1005C24.9896 27.2786 24.5861 26.5236 23.9935 25.9311C23.401 25.3386 22.6461 24.935 21.8242 24.7716C21.0023 24.6081 20.1504 24.692 19.3762 25.0127C18.602 25.3333 17.9403 25.8764 17.4748 26.5731C17.0092 27.2699 16.7607 28.0891 16.7607 28.927C16.7619 30.0504 17.2087 31.1274 18.003 31.9217C18.7973 32.716 19.8743 33.1627 20.9976 33.1639ZM20.9976 26.0027C21.576 26.0027 22.1414 26.1742 22.6223 26.4955C23.1032 26.8169 23.478 27.2736 23.6993 27.8079C23.9207 28.3423 23.9786 28.9303 23.8658 29.4975C23.7529 30.0648 23.4744 30.5859 23.0654 30.9948C22.6565 31.4038 22.1354 31.6823 21.5681 31.7952C21.0009 31.908 20.4129 31.8501 19.8785 31.6288C19.3442 31.4074 18.8874 31.0326 18.5661 30.5517C18.2448 30.0708 18.0733 29.5054 18.0733 28.927C18.0742 28.1517 18.3826 27.4085 18.9308 26.8602C19.479 26.312 20.2223 26.0036 20.9976 26.0027Z" fill="url(#paint13_linear_8_126)"/>
<path d="M19.8435 9.18033C19.2337 9.17964 18.6373 9.35985 18.1299 9.69816C17.6225 10.0365 17.2268 10.5177 16.993 11.0809C16.7591 11.6441 16.6976 12.2641 16.8161 12.8623C16.9347 13.4605 17.228 14.0101 17.659 14.4416C18.09 14.8731 18.6393 15.167 19.2373 15.2863C19.8354 15.4055 20.4554 15.3447 21.0189 15.1114C21.5824 14.8782 22.0641 14.4831 22.403 13.9761C22.7419 13.469 22.9228 12.8729 22.9228 12.263C22.9221 11.4463 22.5975 10.6631 22.0203 10.0852C21.4431 9.50737 20.6603 9.18195 19.8435 9.18033ZM19.8435 14.0323C19.4932 14.033 19.1506 13.9298 18.859 13.7357C18.5675 13.5415 18.34 13.2653 18.2055 12.9418C18.071 12.6184 18.0355 12.2623 18.1035 11.9187C18.1715 11.575 18.3399 11.2593 18.5874 11.0114C18.8349 10.7635 19.1504 10.5946 19.4939 10.5262C19.8375 10.4577 20.1936 10.4926 20.5173 10.6267C20.8409 10.7607 21.1175 10.9877 21.3121 11.279C21.5066 11.5703 21.6104 11.9128 21.6102 12.263C21.6098 12.7317 21.4236 13.1811 21.0924 13.5127C20.7613 13.8443 20.3122 14.0312 19.8435 14.0323Z" fill="url(#paint14_linear_8_126)"/>
<path d="M29.0872 13.7899C28.5794 13.7898 28.083 13.9402 27.6607 14.2222C27.2384 14.5042 26.9092 14.9051 26.7147 15.3742C26.5203 15.8433 26.4693 16.3595 26.5683 16.8576C26.6672 17.3557 26.9117 17.8132 27.2707 18.1723C27.6297 18.5315 28.0872 18.7761 28.5852 18.8752C29.0832 18.9743 29.5995 18.9235 30.0686 18.7293C30.5378 18.535 30.9388 18.2059 31.221 17.7837C31.5031 17.3615 31.6537 16.8651 31.6537 16.3573C31.6532 15.6767 31.3827 15.0241 30.9015 14.5427C30.4204 14.0614 29.7678 13.7906 29.0872 13.7899ZM29.0872 17.6112C28.839 17.6114 28.5963 17.5379 28.3898 17.4001C28.1833 17.2623 28.0223 17.0663 27.9273 16.837C27.8322 16.6077 27.8073 16.3553 27.8556 16.1118C27.904 15.8683 28.0236 15.6447 28.1991 15.4691C28.3746 15.2936 28.5983 15.1741 28.8418 15.1257C29.0853 15.0773 29.3376 15.1022 29.567 15.1973C29.7963 15.2924 29.9922 15.4533 30.1301 15.6598C30.2679 15.8663 30.3413 16.109 30.3412 16.3573C30.3407 16.6897 30.2084 17.0084 29.9734 17.2434C29.7383 17.4785 29.4197 17.6107 29.0872 17.6112Z" fill="url(#paint15_linear_8_126)"/>
<path d="M19.8896 19.6395C19.8896 20.0375 20.0077 20.4266 20.2288 20.7576C20.45 21.0886 20.7643 21.3465 21.132 21.4988C21.4998 21.6512 21.9044 21.691 22.2948 21.6134C22.6852 21.5357 23.0438 21.344 23.3253 21.0626C23.6068 20.7811 23.7984 20.4225 23.8761 20.0321C23.9538 19.6417 23.9139 19.2371 23.7616 18.8693C23.6092 18.5016 23.3513 18.1872 23.0203 17.9661C22.6894 17.745 22.3003 17.6269 21.9022 17.6269C21.3684 17.6269 20.8565 17.839 20.4791 18.2164C20.1017 18.5938 19.8896 19.1057 19.8896 19.6395ZM22.6022 19.6395C22.6022 19.7779 22.5612 19.9133 22.4843 20.0284C22.4073 20.1435 22.298 20.2332 22.1701 20.2862C22.0422 20.3392 21.9014 20.3531 21.7656 20.3261C21.6299 20.299 21.5051 20.2324 21.4072 20.1345C21.3093 20.0366 21.2426 19.9118 21.2156 19.776C21.1886 19.6403 21.2025 19.4995 21.2555 19.3716C21.3085 19.2437 21.3982 19.1344 21.5133 19.0574C21.6284 18.9805 21.7638 18.9395 21.9022 18.9395C21.9943 18.9392 22.0855 18.9572 22.1706 18.9922C22.2558 19.0273 22.3331 19.0788 22.3983 19.1439C22.4635 19.2089 22.5152 19.2861 22.5505 19.3712C22.5858 19.4562 22.604 19.5474 22.604 19.6395H22.6022Z" fill="url(#paint16_linear_8_126)"/>
<path d="M29.0873 24.6902C28.6892 24.6902 28.3001 24.8082 27.9691 25.0293C27.6382 25.2505 27.3802 25.5648 27.2279 25.9325C27.0756 26.3003 27.0357 26.7049 27.1134 27.0953C27.191 27.4857 27.3827 27.8443 27.6642 28.1258C27.9456 28.4073 28.3042 28.5989 28.6946 28.6766C29.085 28.7543 29.4897 28.7144 29.8574 28.5621C30.2252 28.4097 30.5395 28.1518 30.7606 27.8208C30.9818 27.4899 31.0998 27.1008 31.0998 26.7027C31.0998 26.1689 30.8878 25.657 30.5104 25.2796C30.1329 24.9022 29.621 24.6902 29.0873 24.6902ZM29.0873 27.4027C28.9488 27.4027 28.8135 27.3617 28.6984 27.2848C28.5832 27.2078 28.4935 27.0985 28.4405 26.9706C28.3876 26.8427 28.3737 26.7019 28.4007 26.5661C28.4277 26.4304 28.4944 26.3056 28.5923 26.2077C28.6902 26.1098 28.8149 26.0432 28.9507 26.0161C29.0865 25.9891 29.2272 26.003 29.3552 26.056C29.4831 26.109 29.5924 26.1987 29.6693 26.3138C29.7462 26.4289 29.7873 26.5643 29.7873 26.7027C29.7875 26.7948 29.7696 26.886 29.7345 26.9711C29.6994 27.0563 29.6479 27.1336 29.5829 27.1988C29.5179 27.264 29.4406 27.3157 29.3556 27.351C29.2705 27.3863 29.1793 27.4045 29.0873 27.4045V27.4027Z" fill="url(#paint17_linear_8_126)"/>
<defs>
<linearGradient id="paint0_linear_8_126" x1="24.3473" y1="0" x2="24.3473" y2="10.448" gradientUnits="userSpaceOnUse">
<stop stop-color="#48D1D3"/>
<stop offset="1" stop-color="#2297BE"/>
</linearGradient>
<linearGradient id="paint1_linear_8_126" x1="17.6742" y1="31.6098" x2="17.6742" y2="42.0004" gradientUnits="userSpaceOnUse">
<stop stop-color="#48D1D3"/>
<stop offset="1" stop-color="#2297BE"/>
</linearGradient>
<linearGradient id="paint2_linear_8_126" x1="10.6242" y1="4.99509" x2="10.6242" y2="16.2295" gradientUnits="userSpaceOnUse">
<stop stop-color="#48D1D3"/>
<stop offset="1" stop-color="#2297BE"/>
</linearGradient>
<linearGradient id="paint3_linear_8_126" x1="31.3973" y1="25.8193" x2="31.3973" y2="37.0075" gradientUnits="userSpaceOnUse">
<stop stop-color="#48D1D3"/>
<stop offset="1" stop-color="#2297BE"/>
</linearGradient>
<linearGradient id="paint4_linear_8_126" x1="5.21101" y1="18.6086" x2="5.21101" y2="30.1748" gradientUnits="userSpaceOnUse">
<stop stop-color="#48D1D3"/>
<stop offset="1" stop-color="#2297BE"/>
</linearGradient>
<linearGradient id="paint5_linear_8_126" x1="36.8015" y1="11.8737" x2="36.8015" y2="23.3225" gradientUnits="userSpaceOnUse">
<stop stop-color="#48D1D3"/>
<stop offset="1" stop-color="#2297BE"/>
</linearGradient>
<linearGradient id="paint6_linear_8_126" x1="32.6235" y1="6.25055" x2="32.6235" y2="12.4544" gradientUnits="userSpaceOnUse">
<stop stop-color="#48D1D3"/>
<stop offset="1" stop-color="#2297BE"/>
</linearGradient>
<linearGradient id="paint7_linear_8_126" x1="9.39202" y1="29.5485" x2="9.39202" y2="35.7472" gradientUnits="userSpaceOnUse">
<stop stop-color="#48D1D3"/>
<stop offset="1" stop-color="#2297BE"/>
</linearGradient>
<linearGradient id="paint8_linear_8_126" x1="16.3217" y1="1.62521" x2="16.3217" y2="9.08581" gradientUnits="userSpaceOnUse">
<stop stop-color="#48D1D3"/>
<stop offset="1" stop-color="#2297BE"/>
</linearGradient>
<linearGradient id="paint9_linear_8_126" x1="25.6805" y1="32.8941" x2="25.6805" y2="40.3732" gradientUnits="userSpaceOnUse">
<stop stop-color="#48D1D3"/>
<stop offset="1" stop-color="#2297BE"/>
</linearGradient>
<linearGradient id="paint10_linear_8_126" x1="5.34877" y1="14.4454" x2="5.34877" y2="18.295" gradientUnits="userSpaceOnUse">
<stop stop-color="#48D1D3"/>
<stop offset="1" stop-color="#2297BE"/>
</linearGradient>
<linearGradient id="paint11_linear_8_126" x1="36.6462" y1="23.7047" x2="36.6462" y2="27.552" gradientUnits="userSpaceOnUse">
<stop stop-color="#48D1D3"/>
<stop offset="1" stop-color="#2297BE"/>
</linearGradient>
<linearGradient id="paint12_linear_8_126" x1="12.3673" y1="18.9832" x2="12.3673" y2="24.4434" gradientUnits="userSpaceOnUse">
<stop stop-color="#48D1D3"/>
<stop offset="1" stop-color="#2297BE"/>
</linearGradient>
<linearGradient id="paint13_linear_8_126" x1="20.9976" y1="24.6902" x2="20.9976" y2="33.1639" gradientUnits="userSpaceOnUse">
<stop stop-color="#48D1D3"/>
<stop offset="1" stop-color="#2297BE"/>
</linearGradient>
<linearGradient id="paint14_linear_8_126" x1="19.84" y1="9.18033" x2="19.84" y2="15.3458" gradientUnits="userSpaceOnUse">
<stop stop-color="#48D1D3"/>
<stop offset="1" stop-color="#2297BE"/>
</linearGradient>
<linearGradient id="paint15_linear_8_126" x1="29.0864" y1="13.7899" x2="29.0864" y2="18.9246" gradientUnits="userSpaceOnUse">
<stop stop-color="#48D1D3"/>
<stop offset="1" stop-color="#2297BE"/>
</linearGradient>
<linearGradient id="paint16_linear_8_126" x1="21.9022" y1="17.6269" x2="21.9022" y2="21.652" gradientUnits="userSpaceOnUse">
<stop stop-color="#48D1D3"/>
<stop offset="1" stop-color="#2297BE"/>
</linearGradient>
<linearGradient id="paint17_linear_8_126" x1="29.0873" y1="24.6902" x2="29.0873" y2="28.7153" gradientUnits="userSpaceOnUse">
<stop stop-color="#48D1D3"/>
<stop offset="1" stop-color="#2297BE"/>
</linearGradient>
</defs>
</svg>
