<svg width="21" height="21" viewBox="0 0 21 21" fill="none" xmlns="http://www.w3.org/2000/svg">
<path d="M10.782 9.10134V9.0701C10.7755 9.08065 10.7686 9.09119 10.7617 9.10134H10.782Z" fill="#48D1D3"/>
<path d="M18.569 0H1.48119C0.663309 0 0 0.647487 0 1.44549V18.7333C0 19.5309 0.663309 20.1784 1.48119 20.1784H18.569C19.3881 20.1784 20.0514 19.5305 20.0514 18.7333V1.44549C20.0514 0.647081 19.3877 0 18.569 0ZM6.0777 16.8919H3.04919V7.7804H6.0777V16.8919ZM4.56365 6.53573H4.54336C3.52751 6.53573 2.87028 5.83591 2.87028 4.96164C2.87028 4.06789 3.54779 3.38754 4.58353 3.38754C5.61967 3.38754 6.25702 4.06789 6.2773 4.96164C6.2773 5.83591 5.61927 6.53573 4.56365 6.53573ZM16.9986 16.8919H13.9701V12.0162C13.9701 10.7919 13.5319 9.95613 12.4361 9.95613C11.5996 9.95613 11.1014 10.5196 10.8819 11.0641C10.802 11.2584 10.7825 11.5302 10.7825 11.8028V16.8915H7.75403C7.75403 16.8915 7.79378 8.63398 7.75403 7.77999H10.7825V9.06969C11.185 8.44898 11.9047 7.56497 13.5124 7.56497C15.5048 7.56497 16.999 8.86765 16.999 11.6665L16.9986 16.8919Z" fill="#48D1D3"/>
</svg>
